<svg xmlns="http://www.w3.org/2000/svg" viewBox="0 0 32 32" fill="none">
  <rect width="32" height="32" rx="7" fill="#0a0a0b" />
  <path fill="#c6f24e" fill-rule="evenodd" clip-rule="evenodd" d="M16.963 6.286a.75.75 0 0 0-1.071-.136 9.742 9.742 0 0 0-3.539 6.177 7.547 7.547 0 0 1-1.705-1.716.75.75 0 0 0-1.152-.082A9 9 0 1 0 19.68 8.534a7.46 7.46 0 0 1-2.717-2.248ZM19.75 18.25a3.75 3.75 0 1 1-7.313-1.172c.628.465 1.35.81 2.133 1a5.99 5.99 0 0 1 1.925-3.545 3.75 3.75 0 0 1 3.255 3.717Z" />
</svg>
